<svg id="Livello_1" data-name="Livello 1" xmlns="http://www.w3.org/2000/svg" viewBox="0 0 181.71 69.04"><defs><style>.cls-1{fill:#4c5064;}.cls-2{fill:#f08064;}</style></defs><title>BoolBnb_logo</title><path class="cls-1" d="M61.18,40.76A11.27,11.27,0,0,1,45.59,54.87v1.2H39.4V20.26h6.19V34.75a11.26,11.26,0,0,1,15.59,6ZM50.67,49.88a5.08,5.08,0,1,0-5.08-5.07,5.07,5.07,0,0,0,5.08,5.07Z" transform="translate(-17.82 -20.26)"/><path class="cls-1" d="M87.52,44.79A11.26,11.26,0,1,1,76.26,33.53,11.26,11.26,0,0,1,87.52,44.79Zm-6.19,0a5.07,5.07,0,1,0-5.07,5.08A5.05,5.05,0,0,0,81.33,44.79Z" transform="translate(-17.82 -20.26)"/><path class="cls-1" d="M113.12,44.79a11.26,11.26,0,1,1-11.27-11.26A11.27,11.27,0,0,1,113.12,44.79Zm-6.19,0a5.07,5.07,0,1,0-5.08,5.08A5.07,5.07,0,0,0,106.93,44.79Z" transform="translate(-17.82 -20.26)"/><path class="cls-1" d="M116.69,56.11V20.29h6.2V56.11Z" transform="translate(-17.82 -20.26)"/><path class="cls-2" d="M148.76,40.76a11.27,11.27,0,0,1-15.59,14.11v1.2H127V20.26h6.19V34.75a11.26,11.26,0,0,1,15.59,6Zm-10.51,9.12a5.08,5.08,0,1,0-5.08-5.07,5.07,5.07,0,0,0,5.08,5.07Z" transform="translate(-17.82 -20.26)"/><path class="cls-2" d="M172.88,43.43V56.08h-6.19V43.43a3.71,3.71,0,1,0-7.41,0V56.08h-6.19V33.53h6.19v.72a9.89,9.89,0,0,1,13.6,9.18Z" transform="translate(-17.82 -20.26)"/><path class="cls-2" d="M198.77,40.76a11.26,11.26,0,0,1-15.58,14.11v1.2H177V20.26h6.2V34.75a11.25,11.25,0,0,1,15.58,6Zm-10.51,9.12a5.08,5.08,0,1,0-5.07-5.07,5.07,5.07,0,0,0,5.07,5.07Z" transform="translate(-17.82 -20.26)"/><rect class="cls-2" x="6.48" y="12.65" width="3.77" height="9.78"/><rect class="cls-2" y="12.65" width="6.48" height="9.78"/><rect class="cls-2" y="27.31" width="6.46" height="4.89"/><path class="cls-2" d="M39.62,62.05A13.58,13.58,0,0,0,34,63.26V28H24.29v4.89h3.78v9.77H24.29V89.3H39.62v-.08a13.59,13.59,0,0,0,0-27.17Zm0,18.69h-5.1v-5.1a5.1,5.1,0,1,1,5.1,5.1Z" transform="translate(-17.82 -20.26)"/></svg>